<svg xmlns="http://www.w3.org/2000/svg" width="805" height="700"><rect width="805" height="700" x="0" y="0" fill="#FFFFFF" id="backgorund"/><g transform="translate(402.5,350)" id="viz"><g id="links"><path d="M0,0C-7.250495410013317,60.81934574055673,48.05567896452627,-37.97649561581988,96.11135792905255,-75.95299123163976" fill="none" stroke="#ccc"/><path d="M0,0C-7.250495410013317,60.81934574055673,26.68506238040148,55.13138802673194,53.37012476080296,110.26277605346388" fill="none" stroke="#ccc"/><path d="M0,0C-7.250495410013317,60.81934574055673,-55.463292996966025,25.98818250537539,-110.92658599393205,51.97636501075078" fill="none" stroke="#ccc"/><path d="M0,0C-7.250495410013317,60.81934574055673,-37.781143052449615,-48.20941536308378,-75.56228610489923,-96.41883072616756" fill="none" stroke="#ccc"/><path d="M96.11135792905255,-75.95299123163976C144.16703689357882,-113.92948684745964,33.86187533004674,-180.60297865520482,45.14916710672899,-240.80397154027312" fill="none" stroke="#ccc"/><path d="M96.11135792905255,-75.95299123163976C144.16703689357882,-113.92948684745964,102.96310507313183,-152.1928431093237,137.2841400975091,-202.92379081243158" fill="none" stroke="#ccc"/><path d="M96.11135792905255,-75.95299123163976C144.16703689357882,-113.92948684745964,149.76681256518327,-106.46109314705191,199.68908342024434,-141.94812419606922" fill="none" stroke="#ccc"/><path d="M96.11135792905255,-75.95299123163976C144.16703689357882,-113.92948684745964,176.99315927561068,-49.37088281202094,235.99087903414758,-65.82784374936125" fill="none" stroke="#ccc"/><path d="M96.11135792905255,-75.95299123163976C144.16703689357882,-113.92948684745964,183.5391793089245,8.799554454997043,244.71890574523266,11.732739273329392" fill="none" stroke="#ccc"/><path d="M53.37012476080296,110.26277605346388C80.05518714120443,165.39416408019582,168.13590625086383,74.12408197880585,224.18120833448512,98.83210930507445" fill="none" stroke="#ccc"/><path d="M53.37012476080296,110.26277605346388C80.05518714120443,165.39416408019582,126.34020362455082,133.4249431257403,168.45360483273444,177.89992416765375" fill="none" stroke="#ccc"/><path d="M53.37012476080296,110.26277605346388C80.05518714120443,165.39416408019582,72.4200947889991,168.87685563970092,96.56012638533213,225.16914085293456" fill="none" stroke="#ccc"/><path d="M53.37012476080296,110.26277605346388C80.05518714120443,165.39416408019582,11.152971479633667,183.4112148347927,14.870628639511555,244.54828644639025" fill="none" stroke="#ccc"/><path d="M53.37012476080296,110.26277605346388C80.05518714120443,165.39416408019582,-46.17150899112109,177.8545873951044,-61.56201198816145,237.1394498601392" fill="none" stroke="#ccc"/><path d="M-110.92658599393205,51.97636501075078C-166.38987899089807,77.96454751612617,-105.15436773249223,150.68716417392622,-140.205823643323,200.9162188985683" fill="none" stroke="#ccc"/><path d="M-110.92658599393205,51.97636501075078C-166.38987899089807,77.96454751612617,-153.42274501376383,101.1213321334406,-204.56366001835178,134.82844284458747" fill="none" stroke="#ccc"/><path d="M-110.92658599393205,51.97636501075078C-166.38987899089807,77.96454751612617,-178.21203656253329,44.77200603317097,-237.6160487500444,59.69600804422796" fill="none" stroke="#ccc"/><path d="M-110.92658599393205,51.97636501075078C-166.38987899089807,77.96454751612617,-183.08416360544842,-15.628548777586301,-244.11221814059792,-20.838065036781735" fill="none" stroke="#ccc"/><path d="M-75.56228610489923,-96.41883072616756C-113.34342915734884,-144.62824608925135,-167.27375161318287,-76.04968455721036,-223.03166881757718,-101.39957940961379" fill="none" stroke="#ccc"/><path d="M-75.56228610489923,-96.41883072616756C-113.34342915734884,-144.62824608925135,-132.38954147770872,-127.42476920646959,-176.51938863694497,-169.89969227529278" fill="none" stroke="#ccc"/><path d="M-75.56228610489923,-96.41883072616756C-113.34342915734884,-144.62824608925135,-85.96070755601835,-162.4032612248556,-114.61427674135778,-216.53768163314083" fill="none" stroke="#ccc"/><path d="M-75.56228610489923,-96.41883072616756C-113.34342915734884,-144.62824608925135,-33.861875330046445,-180.6029786552049,-45.1491671067286,-240.80397154027318" fill="none" stroke="#ccc"/></g><g><circle transform="&#10;&#9;        rotate(96.79835359837705)&#10;&#9;        translate(0,0)&#10;&#9;      " fill="#ccc" r="5"/><circle transform="&#10;&#9;        rotate(-38.317917643154516)&#10;&#9;        translate(122.5,0)&#10;&#9;      " fill="#d62728" r="5"/><circle transform="&#10;&#9;        rotate(64.17177964663856)&#10;&#9;        translate(122.5,0)&#10;&#9;      " fill="#2ca02c" r="5"/><circle transform="&#10;&#9;        rotate(154.8938351172316)&#10;&#9;        translate(122.5,0)&#10;&#9;      " fill="#ff7f0e" r="5"/><circle transform="&#10;&#9;        rotate(231.91462483990864)&#10;&#9;        translate(122.5,0)&#10;&#9;      " fill="#1f77b4" r="5"/><circle transform="&#10;&#9;        rotate(-79.38070733292379)&#10;&#9;        translate(245,0)&#10;&#9;      " fill="#d62728" r="35"/><circle transform="&#10;&#9;        rotate(-55.92044852891254)&#10;&#9;        translate(245,0)&#10;&#9;      " fill="#d62728" r="19.781795784115364"/><circle transform="&#10;&#9;        rotate(-35.40695389196561)&#10;&#9;        translate(245,0)&#10;&#9;      " fill="#d62728" r="16.49915822768611"/><circle transform="&#10;&#9;        rotate(-15.586036222260944)&#10;&#9;        translate(245,0)&#10;&#9;      " fill="#d62728" r="15.433549314543447"/><circle transform="&#10;&#9;        rotate(2.744872046614745)&#10;&#9;        translate(245,0)&#10;&#9;      " fill="#d62728" r="7.144345083117603"/><circle transform="&#10;&#9;        rotate(23.79067405916568)&#10;&#9;        translate(245,0)&#10;&#9;      " fill="#2ca02c" r="32.4786254498418"/><circle transform="&#10;&#9;        rotate(46.56227682166744)&#10;&#9;        translate(245,0)&#10;&#9;      " fill="#2ca02c" r="17.979540841992854"/><circle transform="&#10;&#9;        rotate(66.78871315344534)&#10;&#9;        translate(245,0)&#10;&#9;      " fill="#2ca02c" r="16.49915822768611"/><circle transform="&#10;&#9;        rotate(86.52021110156238)&#10;&#9;        translate(245,0)&#10;&#9;      " fill="#2ca02c" r="14.872140247978956"/><circle transform="&#10;&#9;        rotate(104.55288523411139)&#10;&#9;        translate(245,0)&#10;&#9;      " fill="#2ca02c" r="5.833333333333334"/><circle transform="&#10;&#9;        rotate(124.90857886632412)&#10;&#9;        translate(245,0)&#10;&#9;      " fill="#ff7f0e" r="29.456889403556065"/><circle transform="&#10;&#9;        rotate(146.61101892454127)&#10;&#9;        translate(245,0)&#10;&#9;      " fill="#ff7f0e" r="14.288690166235206"/><circle transform="&#10;&#9;        rotate(165.89750912807023)&#10;&#9;        translate(245,0)&#10;&#9;      " fill="#ff7f0e" r="14.288690166235206"/><circle transform="&#10;&#9;        rotate(184.87909136813914)&#10;&#9;        translate(245,0)&#10;&#9;      " fill="#ff7f0e" r="12.374368670764582"/><circle transform="&#10;&#9;        rotate(204.44854234689348)&#10;&#9;        translate(245,0)&#10;&#9;      " fill="#1f77b4" r="17.979540841992854"/><circle transform="&#10;&#9;        rotate(223.90527245962983)&#10;&#9;        translate(245,0)&#10;&#9;      " fill="#1f77b4" r="11.666666666666668"/><circle transform="&#10;&#9;        rotate(242.10754869454007)&#10;&#9;        translate(245,0)&#10;&#9;      " fill="#1f77b4" r="10.103629710818451"/><circle transform="&#10;&#9;        rotate(259.3807073329239)&#10;&#9;        translate(245,0)&#10;&#9;      " fill="#1f77b4" r="5.833333333333334"/></g><g id="labels"><g transform="&#10;&#9;        rotate(96.79835359837705)&#10;&#9;        translate(0,0)&#10;&#9;        rotate(180)&#10;&#9;      "><text x="0" y="0" text-anchor="middle" dominant-baseline="text-before-edge" transform="translate(0,0)"><tspan x="6" y="0" dy="0" text-anchor="start" style="font-family: Arial, sans-serif; font-size: 10px; fill: black; font-weight: normal;"/></text></g><g transform="&#10;&#9;        rotate(-38.317917643154516)&#10;&#9;        translate(122.5,0)&#10;&#9;        rotate(0)&#10;&#9;      "><text x="0" y="0" text-anchor="middle" dominant-baseline="text-before-edge" transform="translate(0,-5.599999904632568)"><tspan x="-6" y="0" dy="0" text-anchor="end" style="font-family: Arial, sans-serif; font-size: 10px; fill: black; font-weight: normal;">Modern </tspan></text></g><g transform="&#10;&#9;        rotate(64.17177964663856)&#10;&#9;        translate(122.5,0)&#10;&#9;        rotate(0)&#10;&#9;      "><text x="0" y="0" text-anchor="middle" dominant-baseline="text-before-edge" transform="translate(0,-5.599999904632568)"><tspan x="-6" y="0" dy="0" text-anchor="end" style="font-family: Arial, sans-serif; font-size: 10px; fill: black; font-weight: normal;">Late Romantic </tspan></text></g><g transform="&#10;&#9;        rotate(154.8938351172316)&#10;&#9;        translate(122.5,0)&#10;&#9;        rotate(180)&#10;&#9;      "><text x="0" y="0" text-anchor="middle" dominant-baseline="text-before-edge" transform="translate(0,-5.599999904632568)"><tspan x="6" y="0" dy="0" text-anchor="start" style="font-family: Arial, sans-serif; font-size: 10px; fill: black; font-weight: normal;">Early Romantic </tspan></text></g><g transform="&#10;&#9;        rotate(231.91462483990864)&#10;&#9;        translate(122.5,0)&#10;&#9;        rotate(180)&#10;&#9;      "><text x="0" y="0" text-anchor="middle" dominant-baseline="text-before-edge" transform="translate(0,-5.599999904632568)"><tspan x="6" y="0" dy="0" text-anchor="start" style="font-family: Arial, sans-serif; font-size: 10px; fill: black; font-weight: normal;">Classical </tspan></text></g><g transform="&#10;&#9;        rotate(-79.38070733292379)&#10;&#9;        translate(245,0)&#10;&#9;        rotate(0)&#10;&#9;      "><text x="0" y="0" text-anchor="middle" dominant-baseline="text-before-edge" transform="translate(0,-5.599999904632568)"><tspan x="40" y="0" dy="0" text-anchor="start" style="font-family: Arial, sans-serif; font-size: 10px; fill: black; font-weight: bold;">Strings</tspan></text></g><g transform="&#10;&#9;        rotate(-55.92044852891254)&#10;&#9;        translate(245,0)&#10;&#9;        rotate(0)&#10;&#9;      "><text x="0" y="0" text-anchor="middle" dominant-baseline="text-before-edge" transform="translate(0,-5.599999904632568)"><tspan x="24.781795784115364" y="0" dy="0" text-anchor="start" style="font-family: Arial, sans-serif; font-size: 10px; fill: black; font-weight: bold;">Brass</tspan></text></g><g transform="&#10;&#9;        rotate(-35.40695389196561)&#10;&#9;        translate(245,0)&#10;&#9;        rotate(0)&#10;&#9;      "><text x="0" y="0" text-anchor="middle" dominant-baseline="text-before-edge" transform="translate(0,-5.599999904632568)"><tspan x="21.49915822768611" y="0" dy="0" text-anchor="start" style="font-family: Arial, sans-serif; font-size: 10px; fill: black; font-weight: bold;">Woodwinds</tspan></text></g><g transform="&#10;&#9;        rotate(-15.586036222260944)&#10;&#9;        translate(245,0)&#10;&#9;        rotate(0)&#10;&#9;      "><text x="0" y="0" text-anchor="middle" dominant-baseline="text-before-edge" transform="translate(0,-5.599999904632568)"><tspan x="20.43354931454345" y="0" dy="0" text-anchor="start" style="font-family: Arial, sans-serif; font-size: 10px; fill: black; font-weight: bold;">Percussion</tspan></text></g><g transform="&#10;&#9;        rotate(2.744872046614745)&#10;&#9;        translate(245,0)&#10;&#9;        rotate(0)&#10;&#9;      "><text x="0" y="0" text-anchor="middle" dominant-baseline="text-before-edge" transform="translate(0,-5.599999904632568)"><tspan x="12.144345083117603" y="0" dy="0" text-anchor="start" style="font-family: Arial, sans-serif; font-size: 10px; fill: black; font-weight: bold;">Keyboards</tspan></text></g><g transform="&#10;&#9;        rotate(23.79067405916568)&#10;&#9;        translate(245,0)&#10;&#9;        rotate(0)&#10;&#9;      "><text x="0" y="0" text-anchor="middle" dominant-baseline="text-before-edge" transform="translate(0,-5.599999904632568)"><tspan x="37.4786254498418" y="0" dy="0" text-anchor="start" style="font-family: Arial, sans-serif; font-size: 10px; fill: black; font-weight: bold;">Strings</tspan></text></g><g transform="&#10;&#9;        rotate(46.56227682166744)&#10;&#9;        translate(245,0)&#10;&#9;        rotate(0)&#10;&#9;      "><text x="0" y="0" text-anchor="middle" dominant-baseline="text-before-edge" transform="translate(0,-5.599999904632568)"><tspan x="22.979540841992854" y="0" dy="0" text-anchor="start" style="font-family: Arial, sans-serif; font-size: 10px; fill: black; font-weight: bold;">Brass</tspan></text></g><g transform="&#10;&#9;        rotate(66.78871315344534)&#10;&#9;        translate(245,0)&#10;&#9;        rotate(0)&#10;&#9;      "><text x="0" y="0" text-anchor="middle" dominant-baseline="text-before-edge" transform="translate(0,-5.599999904632568)"><tspan x="21.49915822768611" y="0" dy="0" text-anchor="start" style="font-family: Arial, sans-serif; font-size: 10px; fill: black; font-weight: bold;">Woodwinds</tspan></text></g><g transform="&#10;&#9;        rotate(86.52021110156238)&#10;&#9;        translate(245,0)&#10;&#9;        rotate(0)&#10;&#9;      "><text x="0" y="0" text-anchor="middle" dominant-baseline="text-before-edge" transform="translate(0,-5.599999904632568)"><tspan x="19.872140247978955" y="0" dy="0" text-anchor="start" style="font-family: Arial, sans-serif; font-size: 10px; fill: black; font-weight: bold;">Percussion</tspan></text></g><g transform="&#10;&#9;        rotate(104.55288523411139)&#10;&#9;        translate(245,0)&#10;&#9;        rotate(180)&#10;&#9;      "><text x="0" y="0" text-anchor="middle" dominant-baseline="text-before-edge" transform="translate(0,-5.599999904632568)"><tspan x="-10.833333333333334" y="0" dy="0" text-anchor="end" style="font-family: Arial, sans-serif; font-size: 10px; fill: black; font-weight: bold;">Keyboards</tspan></text></g><g transform="&#10;&#9;        rotate(124.90857886632412)&#10;&#9;        translate(245,0)&#10;&#9;        rotate(180)&#10;&#9;      "><text x="0" y="0" text-anchor="middle" dominant-baseline="text-before-edge" transform="translate(0,-5.599999904632568)"><tspan x="-34.45688940355606" y="0" dy="0" text-anchor="end" style="font-family: Arial, sans-serif; font-size: 10px; fill: black; font-weight: bold;">Strings</tspan></text></g><g transform="&#10;&#9;        rotate(146.61101892454127)&#10;&#9;        translate(245,0)&#10;&#9;        rotate(180)&#10;&#9;      "><text x="0" y="0" text-anchor="middle" dominant-baseline="text-before-edge" transform="translate(0,-5.599999904632568)"><tspan x="-19.288690166235206" y="0" dy="0" text-anchor="end" style="font-family: Arial, sans-serif; font-size: 10px; fill: black; font-weight: bold;">Woodwinds</tspan></text></g><g transform="&#10;&#9;        rotate(165.89750912807023)&#10;&#9;        translate(245,0)&#10;&#9;        rotate(180)&#10;&#9;      "><text x="0" y="0" text-anchor="middle" dominant-baseline="text-before-edge" transform="translate(0,-5.599999904632568)"><tspan x="-19.288690166235206" y="0" dy="0" text-anchor="end" style="font-family: Arial, sans-serif; font-size: 10px; fill: black; font-weight: bold;">Brass</tspan></text></g><g transform="&#10;&#9;        rotate(184.87909136813914)&#10;&#9;        translate(245,0)&#10;&#9;        rotate(180)&#10;&#9;      "><text x="0" y="0" text-anchor="middle" dominant-baseline="text-before-edge" transform="translate(0,-5.599999904632568)"><tspan x="-17.374368670764582" y="0" dy="0" text-anchor="end" style="font-family: Arial, sans-serif; font-size: 10px; fill: black; font-weight: bold;">Percussion</tspan></text></g><g transform="&#10;&#9;        rotate(204.44854234689348)&#10;&#9;        translate(245,0)&#10;&#9;        rotate(180)&#10;&#9;      "><text x="0" y="0" text-anchor="middle" dominant-baseline="text-before-edge" transform="translate(0,-5.599999904632568)"><tspan x="-22.979540841992854" y="0" dy="0" text-anchor="end" style="font-family: Arial, sans-serif; font-size: 10px; fill: black; font-weight: bold;">Strings</tspan></text></g><g transform="&#10;&#9;        rotate(223.90527245962983)&#10;&#9;        translate(245,0)&#10;&#9;        rotate(180)&#10;&#9;      "><text x="0" y="0" text-anchor="middle" dominant-baseline="text-before-edge" transform="translate(0,-5.599999904632568)"><tspan x="-16.666666666666668" y="0" dy="0" text-anchor="end" style="font-family: Arial, sans-serif; font-size: 10px; fill: black; font-weight: bold;">Woodwinds</tspan></text></g><g transform="&#10;&#9;        rotate(242.10754869454007)&#10;&#9;        translate(245,0)&#10;&#9;        rotate(180)&#10;&#9;      "><text x="0" y="0" text-anchor="middle" dominant-baseline="text-before-edge" transform="translate(0,-5.599999904632568)"><tspan x="-15.103629710818451" y="0" dy="0" text-anchor="end" style="font-family: Arial, sans-serif; font-size: 10px; fill: black; font-weight: bold;">Brass</tspan></text></g><g transform="&#10;&#9;        rotate(259.3807073329239)&#10;&#9;        translate(245,0)&#10;&#9;        rotate(180)&#10;&#9;      "><text x="0" y="0" text-anchor="middle" dominant-baseline="text-before-edge" transform="translate(0,-5.599999904632568)"><tspan x="-10.833333333333334" y="0" dy="0" text-anchor="end" style="font-family: Arial, sans-serif; font-size: 10px; fill: black; font-weight: bold;">Percussion</tspan></text></g></g></g></svg>